<svg xmlns="http://www.w3.org/2000/svg" version="1.1" xmlns:xlink="http://www.w3.org/1999/xlink" xmlns:svgjs="http://svgjs.dev/svgjs" width="128" height="128" viewBox="0 0 128 128"><g transform="matrix(0.8046875,0,0,0.8046875,12.333870967741937,37.482194010416656)"><svg viewBox="0 0 155 80" data-background-color="#000000" preserveAspectRatio="xMidYMid meet" height="66" width="128" xmlns="http://www.w3.org/2000/svg" xmlns:xlink="http://www.w3.org/1999/xlink"><g id="tight-bounds" transform="matrix(1,0,0,1,0.25,-0.055555555555542924)"><svg viewBox="0 0 154.5 80.1111111111111" height="80.1111111111111" width="154.5"><g><svg viewBox="0 0 154.5 80.1111111111111" height="80.1111111111111" width="154.5"><g><svg viewBox="0 0 154.5 80.1111111111111" height="80.1111111111111" width="154.5"><g id="textblocktransform"><svg viewBox="0 0 154.5 80.1111111111111" height="80.1111111111111" width="154.5" id="textblock"><g><svg viewBox="0 0 154.5 80.1111111111111" height="80.1111111111111" width="154.5"><g transform="matrix(1,0,0,1,0,0)"><svg width="154.5" viewBox="2.5 -35 67.5 35" height="80.1111111111111" data-palette-color="url(#68b26ea5-1e04-4098-92c1-eb9cbce2f180)"></svg></g></svg></g></svg></g></svg></g><g></g></svg></g><defs></defs><mask id="680e19da-866e-4341-9ed1-59622c036b53"><g id="SvgjsG1110"><svg viewBox="0 0 154.5 80.1111111111111" height="80.1111111111111" width="154.5"><g><svg viewBox="0 0 154.5 80.1111111111111" height="80.1111111111111" width="154.5"><g><svg viewBox="0 0 154.5 80.1111111111111" height="80.1111111111111" width="154.5"><g id="SvgjsG1109"><svg viewBox="0 0 154.5 80.1111111111111" height="80.1111111111111" width="154.5" id="SvgjsSvg1108"><g><svg viewBox="0 0 154.5 80.1111111111111" height="80.1111111111111" width="154.5"><g transform="matrix(1,0,0,1,0,0)"><svg width="154.5" viewBox="2.5 -35 67.5 35" height="80.1111111111111" data-palette-color="url(#68b26ea5-1e04-4098-92c1-eb9cbce2f180)"><path d="M2.5 0L2.5-0.75 5.5-1.5 5.5-33.5 2.5-34.25 2.5-35 15.75-35Q24.25-35 28-32.43 31.75-29.85 31.75-25.25L31.75-25.25Q31.75-22.15 30.1-20.23 28.45-18.3 25.85-17.35L25.85-17.35Q23.1-16.3 20-16.25L20-16.25 20-16Q21.85-15.9 23.25-15.45L23.25-15.45Q26.75-14.35 28-11.5L28-11.5 32.5-1.5 35-0.75 35 0 28 0Q23.9 0 22-4.25L22-4.25 17-15.5 13.75-15.5 13.75-1.5 17.25-0.75 17.25 0 2.5 0ZM13.75-16.75L15.75-16.75Q19.25-16.75 21.25-18.95 23.25-21.15 23.25-25.25L23.25-25.25Q23.25-29.35 21.25-31.55 19.25-33.75 15.75-33.75L15.75-33.75 13.75-33.75 13.75-16.75ZM37.5 0L37.5-0.75 40.5-1.5 40.5-33.5 37.5-34.25 37.5-35 50.75-35Q59.25-35 63-32.43 66.75-29.85 66.75-25.25L66.75-25.25Q66.75-22.15 65.1-20.23 63.45-18.3 60.85-17.35L60.85-17.35Q58.1-16.3 55-16.25L55-16.25 55-16Q56.85-15.9 58.25-15.45L58.25-15.45Q61.75-14.35 63-11.5L63-11.5 67.5-1.5 70-0.75 70 0 63 0Q58.9 0 57-4.25L57-4.25 52-15.5 48.75-15.5 48.75-1.5 52.25-0.75 52.25 0 37.5 0ZM48.75-16.75L50.75-16.75Q54.25-16.75 56.25-18.95 58.25-21.15 58.25-25.25L58.25-25.25Q58.25-29.35 56.25-31.55 54.25-33.75 50.75-33.75L50.75-33.75 48.75-33.75 48.75-16.75Z" opacity="1" transform="matrix(1,0,0,1,0,0)" fill="white" class="wordmark-text-0" id="SvgjsPath1107"></path></svg></g></svg></g></svg></g></svg></g><g></g></svg></g><defs><mask></mask></defs></svg><rect width="154.5" height="80.1111111111111" fill="black" stroke="none" visibility="hidden"></rect></g></mask><linearGradient x1="0.054" x2="0.941" y1="0.5" y2="0.5" id="68b26ea5-1e04-4098-92c1-eb9cbce2f180"><stop stop-color="#9c7945" offset="0"></stop><stop stop-color="#faf3aa" offset="0.498"></stop><stop stop-color="#9c7945" offset="1"></stop></linearGradient><rect width="154.5" height="80.1111111111111" fill="#000000" mask="url(#680e19da-866e-4341-9ed1-59622c036b53)" data-fill-palette-color="primary"></rect></svg><rect width="154.5" height="80.1111111111111" fill="none" stroke="none" visibility="hidden"></rect></g></svg></g></svg>